HIERARCHY
ROOT Hips
{
  OFFSET 5.84602e-005 68.8428 3.50346
  CHANNELS 6 Xposition Yposition Zposition Zrotation Xrotation Yrotation
  JOINT Spine
  {
    OFFSET 0 8.597 -4.6522
    CHANNELS 3 Zrotation Xrotation Yrotation
    JOINT Spine1
    {
      OFFSET 0 7.8454 0.4098
      CHANNELS 3 Zrotation Xrotation Yrotation
      JOINT Spine2
      {
        OFFSET 0 9.7078 -2.1609
        CHANNELS 3 Zrotation Xrotation Yrotation
        JOINT Neck
        {
          OFFSET 0 21.8761 -0.4549
          CHANNELS 3 Zrotation Xrotation Yrotation
          JOINT Head
          {
            OFFSET 0 12.3537 3.3602
            CHANNELS 3 Zrotation Xrotation Yrotation
            End Site
            {
              OFFSET 0.0001 18.9506 0.5657
            }
          }
        }
        JOINT LeftShoulder
        {
          OFFSET 2.2086 21.1115 7.2329
          CHANNELS 3 Zrotation Xrotation Yrotation
          JOINT LeftArm
          {
            OFFSET 13.1193 3.0282 -4.8998
            CHANNELS 3 Zrotation Xrotation Yrotation
            JOINT LeftForeArm
            {
              OFFSET 27.4081 -0.0973053 -0.2375
              CHANNELS 3 Zrotation Xrotation Yrotation
              JOINT LeftHand
              {
                OFFSET 22.8641 0.0662994 -0.1369
                CHANNELS 3 Zrotation Xrotation Yrotation
                JOINT LeftHandIndex1
                {
                  OFFSET 8.8614 0.775009 2.4612
                  CHANNELS 3 Zrotation Xrotation Yrotation
                  JOINT LeftHandIndex2
                  {
                    OFFSET 3.3146 -0.808304 0.5841
                    CHANNELS 3 Zrotation Xrotation Yrotation
                    JOINT LeftHandIndex3
                    {
                      OFFSET 2.2628 -0.552002 0.3989
                      CHANNELS 3 Zrotation Xrotation Yrotation
                      End Site
                      {
                        OFFSET 1.6102 -0.4807 0.2612
                      }
                    }
                  }
                }
                JOINT LeftHandMiddle1
                {
                  OFFSET 8.9937 0.895004 0.2143
                  CHANNELS 3 Zrotation Xrotation Yrotation
                  JOINT LeftHandMiddle2
                  {
                    OFFSET 4.0984 0.0113983 -0.0242
                    CHANNELS 3 Zrotation Xrotation Yrotation
                    JOINT LeftHandMiddle3
                    {
                      OFFSET 2.2716 0.00689697 -0.0138001
                      CHANNELS 3 Zrotation Xrotation Yrotation
                      End Site
                      {
                        OFFSET 2.0404 -0.1441 0.0027
                      }
                    }
                  }
                }
                JOINT LeftHandRing1
                {
                  OFFSET 8.5234 0.597198 -2.0164
                  CHANNELS 3 Zrotation Xrotation Yrotation
                  JOINT LeftHandRing2
                  {
                    OFFSET 3.7188 -0.188293 -0.2328
                    CHANNELS 3 Zrotation Xrotation Yrotation
                    JOINT LeftHandRing3
                    {
                      OFFSET 2.1191 -0.106598 -0.1332
                      CHANNELS 3 Zrotation Xrotation Yrotation
                      End Site
                      {
                        OFFSET 1.8737 -0.2304 -0.0886
                      }
                    }
                  }
                }
                JOINT LeftHandPinky1
                {
                  OFFSET 7.9094 -0.601089 -3.4825
                  CHANNELS 3 Zrotation Xrotation Yrotation
                  JOINT LeftHandPinky2
                  {
                    OFFSET 2.2874 -0.477005 -0.6314
                    CHANNELS 3 Zrotation Xrotation Yrotation
                    JOINT LeftHandPinky3
                    {
                      OFFSET 1.6774 -0.349396 -0.4633
                      CHANNELS 3 Zrotation Xrotation Yrotation
                      End Site
                      {
                        OFFSET 1.4888 -0.4091 -0.3416
                      }
                    }
                  }
                }
                JOINT LeftHandThumb1
                {
                  OFFSET 1.833 -1.3875 1.3896
                  CHANNELS 3 Zrotation Xrotation Yrotation
                  JOINT LeftHandThumb2
                  {
                    OFFSET 3.4129 -1.121 2.5732
                    CHANNELS 3 Zrotation Xrotation Yrotation
                    JOINT LeftHandThumb3
                    {
                      OFFSET 2.2474 -0.804199 1.6192
                      CHANNELS 3 Zrotation Xrotation Yrotation
                      End Site
                      {
                        OFFSET 1.6527 -0.5689 1.1317
                      }
                    }
                  }
                }
              }
            }
          }
        }
        JOINT RightShoulder
        {
          OFFSET -2.2086 21.1115 7.2329
          CHANNELS 3 Zrotation Xrotation Yrotation
          JOINT RightArm
          {
            OFFSET -13.1216 3.0287 -4.9007
            CHANNELS 3 Zrotation Xrotation Yrotation
            JOINT RightForeArm
            {
              OFFSET -27.4081 -0.0973053 -0.2375
              CHANNELS 3 Zrotation Xrotation Yrotation
              JOINT RightHand
              {
                OFFSET -22.8641 0.0664063 -0.1369
                CHANNELS 3 Zrotation Xrotation Yrotation
                JOINT RightHandIndex1
                {
                  OFFSET -8.8614 0.774994 2.4612
                  CHANNELS 3 Zrotation Xrotation Yrotation
                  JOINT RightHandIndex2
                  {
                    OFFSET -3.3146 -0.808304 0.5841
                    CHANNELS 3 Zrotation Xrotation Yrotation
                    JOINT RightHandIndex3
                    {
                      OFFSET -2.2628 -0.552002 0.3989
                      CHANNELS 3 Zrotation Xrotation Yrotation
                      End Site
                      {
                        OFFSET -1.6102 -0.4807 0.2612
                      }
                    }
                  }
                }
                JOINT RightHandMiddle1
                {
                  OFFSET -8.9937 0.894989 0.2143
                  CHANNELS 3 Zrotation Xrotation Yrotation
                  JOINT RightHandMiddle2
                  {
                    OFFSET -4.0984 0.0113983 -0.0242
                    CHANNELS 3 Zrotation Xrotation Yrotation
                    JOINT RightHandMiddle3
                    {
                      OFFSET -2.2716 0.00691223 -0.0138001
                      CHANNELS 3 Zrotation Xrotation Yrotation
                      End Site
                      {
                        OFFSET -2.0404 -0.1441 0.0027
                      }
                    }
                  }
                }
                JOINT RightHandRing1
                {
                  OFFSET -8.5234 0.597198 -2.0164
                  CHANNELS 3 Zrotation Xrotation Yrotation
                  JOINT RightHandRing2
                  {
                    OFFSET -3.7188 -0.188309 -0.2328
                    CHANNELS 3 Zrotation Xrotation Yrotation
                    JOINT RightHandRing3
                    {
                      OFFSET -2.1191 -0.106598 -0.1332
                      CHANNELS 3 Zrotation Xrotation Yrotation
                      End Site
                      {
                        OFFSET -1.8737 -0.2304 -0.0886
                      }
                    }
                  }
                }
                JOINT RightHandPinky1
                {
                  OFFSET -7.9094 -0.601105 -3.4825
                  CHANNELS 3 Zrotation Xrotation Yrotation
                  JOINT RightHandPinky2
                  {
                    OFFSET -2.2874 -0.477005 -0.6314
                    CHANNELS 3 Zrotation Xrotation Yrotation
                    JOINT RightHandPinky3
                    {
                      OFFSET -1.6774 -0.349396 -0.4633
                      CHANNELS 3 Zrotation Xrotation Yrotation
                      End Site
                      {
                        OFFSET -1.4888 -0.4091 -0.3416
                      }
                    }
                  }
                }
                JOINT RightHandThumb1
                {
                  OFFSET -1.833 -1.38751 1.3896
                  CHANNELS 3 Zrotation Xrotation Yrotation
                  JOINT RightHandThumb2
                  {
                    OFFSET -3.41299 -1.12099 2.5732
                    CHANNELS 3 Zrotation Xrotation Yrotation
                    JOINT RightHandThumb3
                    {
                      OFFSET -2.24741 -0.804108 1.6192
                      CHANNELS 3 Zrotation Xrotation Yrotation
                      End Site
                      {
                        OFFSET -1.6527 -0.5689 1.1317
                      }
                    }
                  }
                }
              }
            }
          }
        }
      }
    }
  }
  JOINT RightUpLeg
  {
    OFFSET -9.1966 3.8861 -0.7581
    CHANNELS 3 Zrotation Xrotation Yrotation
    JOINT RightLeg
    {
      OFFSET -0.7359 -41.0265 0
      CHANNELS 3 Zrotation Xrotation Yrotation
      JOINT RightFoot
      {
        OFFSET 0 -40.2855 0
        CHANNELS 3 Zrotation Xrotation Yrotation
        JOINT RightToeBase
        {
          OFFSET 0 -5.6122 11.7359
          CHANNELS 3 Zrotation Xrotation Yrotation
          End Site
          {
            OFFSET 0 0 7.8731
          }
        }
      }
    }
  }
  JOINT LeftUpLeg
  {
    OFFSET 9.1965 3.8864 -0.7581
    CHANNELS 3 Zrotation Xrotation Yrotation
    JOINT LeftLeg
    {
      OFFSET 0.7359 -41.0268 0
      CHANNELS 3 Zrotation Xrotation Yrotation
      JOINT LeftFoot
      {
        OFFSET 0 -40.2855 0
        CHANNELS 3 Zrotation Xrotation Yrotation
        JOINT LeftToeBase
        {
          OFFSET 0 -5.6122 11.7359
          CHANNELS 3 Zrotation Xrotation Yrotation
          End Site
          {
            OFFSET 0 0 7.8731
          }
        }
      }
    }
  }
}
MOTION
Frames:	4
Frame Time:	0.0333333
15.4997 1.46393 25.9445 -49.6974 61.9718 46.144 -1.37452 3.30683 0.217976 -2.76858 6.60742 0.516777 -2.76858 6.60743 0.516782 0.00011732 -24.0062 3.87367e-005 -2.89073 2.56134 -27.9424 -31.4896 13.2527 6.89074 -49.0979 -41.6438 -35.5867 46.7689 -31.2661 -113.697 39.9976 8.53161 -42.4812 6.59952e-007 -8.8008e-007 -1.17327e-006 -4.77083e-015 1.98785e-015 1.59028e-015 3.36023e-007 -2.55866e-007 5.95924e-008 6.59952e-007 -8.8008e-007 -1.17327e-006 -0.0146292 -8.97686e-005 1.0627e-005 3.36021e-007 -2.55873e-007 5.95595e-008 6.59952e-007 -8.8008e-007 -1.17327e-006 -0.018762 -0.00117874 4.77731e-005 3.36021e-007 -2.55876e-007 5.9547e-008 6.59952e-007 -8.8008e-007 -1.17327e-006 -0.0122645 -0.00324774 0.000675735 3.36022e-007 -2.55875e-007 5.95556e-008 6.59952e-007 -8.8008e-007 -1.17327e-006 -4.77083e-015 1.98785e-015 1.59028e-015 3.36023e-007 -2.55866e-007 5.95924e-008 19.9863 14.0166 -1.67518 58.7256 -39.6531 52.1453 -50.7655 -19.4064 93.4372 9.05527 -24.7837 5.31765 -1.54487e-031 -5.56597e-015 -1.59028e-015 -5.14281e-007 -1.44144e-006 3.42459e-006 -6.99784e-007 8.30455e-007 1.20184e-006 -1.54487e-031 -5.56597e-015 -1.59028e-015 0.0150543 -9.1745e-005 1.63663e-007 -9.54166e-015 -7.95139e-016 4.77083e-015 -1.54487e-031 -5.56597e-015 -1.59028e-015 0.0189124 -0.00118573 -6.01763e-005 -1.32417e-031 -2.38542e-015 -3.18055e-015 -1.54487e-031 -5.56597e-015 -1.59028e-015 0.0122805 -0.00325278 -0.000679954 -3.18055e-015 7.95139e-016 -4.77083e-015 -1.54487e-031 -5.56597e-015 -1.59028e-015 -5.14281e-007 -1.44144e-006 3.42459e-006 -6.99784e-007 8.30455e-007 1.20184e-006 -98.2771 -26.5002 -85.6092 -176.859 72.0273 172.438 -7.5015 13.3867 -2.03842 3.12321e-006 2.63185e-006 1.46625e-006 3.97398 8.87623 13.7758 -4.25688 7.66402 29.8005 9.23372 49.6384 -13.4118 3.07487e-006 3.603e-007 -1.01503e-006 
15.4396 1.49145 25.8298 -49.6974 61.9718 46.144 -1.37452 3.30683 0.217976 -2.76858 6.60742 0.516777 -2.76858 6.60743 0.516782 6.12051e-005 -24.0063 1.09955e-005 -2.91272 2.39289 -27.7602 -31.0283 12.9944 6.83875 -49.0979 -41.6438 -35.5867 46.7689 -31.2661 -113.697 39.7471 8.5961 -42.0379 -4.76051e-008 1.0476e-006 -5.55478e-006 3.51729e-007 1.85548e-006 -5.00392e-008 -4.76051e-008 1.0476e-006 -5.55478e-006 -4.76051e-008 1.0476e-006 -5.55478e-006 -0.0146268 -8.76325e-005 2.51198e-006 -4.81253e-008 1.04831e-006 -5.55465e-006 -4.76051e-008 1.0476e-006 -5.55478e-006 -0.0187492 -0.00117454 5.26683e-005 -4.83229e-008 1.04847e-006 -5.55461e-006 -4.76051e-008 1.0476e-006 -5.55478e-006 -0.0122745 -0.00324898 0.00067515 -4.81894e-008 1.04808e-006 -5.55465e-006 -4.76051e-008 1.0476e-006 -5.55478e-006 3.51729e-007 1.85548e-006 -5.00392e-008 -4.76051e-008 1.0476e-006 -5.55478e-006 19.6887 13.7344 -1.69361 58.7256 -39.6531 52.1452 -50.7655 -19.4064 93.4372 9.08278 -25.0244 5.06259 -6.36111e-015 -1.59028e-015 -3.18055e-015 -3.18055e-015 7.95139e-016 -3.18055e-015 -1.30344e-006 -9.94833e-007 4.20367e-007 -6.36111e-015 -1.59028e-015 -3.18055e-015 0.0149615 -9.37725e-005 -5.59873e-006 -1.30341e-006 -9.94778e-007 4.20498e-007 -6.36111e-015 -1.59028e-015 -3.18055e-015 0.0189703 -0.00119301 -5.25308e-005 -1.4898e-006 -1.41e-007 3.19384e-006 -6.36111e-015 -1.59028e-015 -3.18055e-015 0.0123038 -0.00326011 -0.000685591 -1.48885e-006 -1.40919e-007 3.19395e-006 -6.36111e-015 -1.59028e-015 -3.18055e-015 -3.18055e-015 7.95139e-016 -3.18055e-015 -1.30344e-006 -9.94833e-007 4.20367e-007 -98.2771 -26.5005 -85.6095 -176.859 72.0272 172.437 -7.50174 13.3867 -2.03857 -2.46718e-006 -1.79747e-006 -4.86755e-007 4.02808 8.82045 13.7786 -4.31154 7.72622 29.8526 9.29713 49.5938 -13.4954 -1.12241e-006 3.84233e-006 -1.28208e-006 
15.3795 1.51897 25.7151 -49.6974 61.9718 46.144 -1.37452 3.30683 0.217976 -2.76858 6.60742 0.516778 -2.76858 6.60743 0.516782 0.000235979 -24.0064 4.85307e-005 -2.93416 2.22432 -27.5781 -30.5672 12.7355 6.7889 -49.0979 -41.6438 -35.5867 46.7689 -31.2661 -113.697 39.4958 8.65872 -41.5937 -1.59028e-015 0 3.18055e-015 2.20695e-032 -7.95139e-016 1.59028e-015 -3.3582e-007 2.55921e-007 -6.04289e-008 -1.59028e-015 0 3.18055e-015 -0.0146314 -8.99234e-005 8.87753e-006 -3.35818e-007 2.55929e-007 -6.0396e-008 -1.59028e-015 0 3.18055e-015 -0.0187516 -0.00117602 6.55199e-005 -3.35818e-007 2.55931e-007 -6.03836e-008 -1.59028e-015 0 3.18055e-015 -0.0122537 -0.00324393 0.000678554 -3.35819e-007 2.5593e-007 -6.03921e-008 -1.59028e-015 0 3.18055e-015 2.20695e-032 -7.95139e-016 1.59028e-015 -3.3582e-007 2.55921e-007 -6.04289e-008 19.3912 13.4522 -1.71353 58.7256 -39.6531 52.1452 -50.7655 -19.4064 93.4371 9.1092 -25.2652 4.80703 -3.18055e-015 7.95139e-016 -0 -3.18055e-015 -7.95139e-016 -3.18055e-015 -6.36111e-015 0 -0 -3.18055e-015 7.95139e-016 -0 0.0149374 -8.96223e-005 -1.08723e-007 -3.18055e-015 3.97569e-015 6.36111e-015 -3.18055e-015 7.95139e-016 -0 0.0190272 -0.00119422 -6.18643e-005 9.54166e-015 0 3.18055e-015 -3.18055e-015 7.95139e-016 -0 0.0121991 -0.00322711 -0.000674579 -3.18055e-015 -1.59028e-015 1.59028e-015 -3.18055e-015 7.95139e-016 -0 -3.18055e-015 -7.95139e-016 -3.18055e-015 -6.36111e-015 0 -0 -98.2771 -26.5007 -85.6099 -176.859 72.0272 172.437 -7.50194 13.3867 -2.03872 5.37248e-008 2.57087e-007 -3.74484e-006 4.0844 8.75605 13.7814 -4.36619 7.80868 29.9031 9.35064 49.5404 -13.5733 -2.54258e-007 2.5597e-007 -7.68531e-007 
15.3194 1.54649 25.6004 -49.6974 61.9718 46.144 -1.37452 3.30683 0.217976 -2.76858 6.60742 0.516777 -2.76858 6.60743 0.516782 0.000126915 -24.0063 3.36212e-005 -2.95507 2.0556 -27.396 -30.1063 12.4759 6.74119 -49.0979 -41.6438 -35.5867 46.7689 -31.2661 -113.697 39.2438 8.71946 -41.149 1.00715e-006 -7.67846e-007 1.82547e-007 6.71436e-007 -5.11897e-007 1.21698e-007 1.00715e-006 -7.67846e-007 1.82547e-007 1.00715e-006 -7.67846e-007 1.82547e-007 -0.0146254 -9.05315e-005 1.50108e-006 1.00715e-006 -7.67869e-007 1.82448e-007 1.00715e-006 -7.67846e-007 1.82547e-007 -0.0187485 -0.0011776 5.56494e-005 1.00715e-006 -7.67876e-007 1.82411e-007 1.00715e-006 -7.67846e-007 1.82547e-007 -0.0122881 -0.00325411 0.000675138 1.00715e-006 -7.67873e-007 1.82437e-007 1.00715e-006 -7.67846e-007 1.82547e-007 6.71436e-007 -5.11897e-007 1.21698e-007 1.00715e-006 -7.67846e-007 1.82547e-007 19.0938 13.1698 -1.73495 58.7256 -39.6531 52.1452 -50.7655 -19.4064 93.4372 9.13451 -25.5063 4.55097 9.54166e-015 1.59028e-015 -3.18055e-015 6.36111e-015 3.97569e-015 -3.18055e-015 6.36111e-015 3.18055e-015 -0 9.54166e-015 1.59028e-015 -3.18055e-015 0.0149714 -9.18628e-005 -3.04058e-006 9.54166e-015 1.59028e-015 -4.77083e-015 9.54166e-015 1.59028e-015 -3.18055e-015 0.0190576 -0.00119559 -6.24715e-005 0 1.59028e-015 -0 9.54166e-015 1.59028e-015 -3.18055e-015 0.0123064 -0.00325728 -0.000674604 -3.18055e-015 1.59028e-015 -1.59028e-015 9.54166e-015 1.59028e-015 -3.18055e-015 6.36111e-015 3.97569e-015 -3.18055e-015 6.36111e-015 3.18055e-015 -0 -98.277 -26.501 -85.6102 -176.859 72.0272 172.437 -7.50218 13.3866 -2.03887 1.27766e-006 1.24111e-006 -4.3303e-007 4.20838 8.42605 13.7953 -4.42632 8.44487 29.9071 9.16816 49.2548 -13.5192 6.19181e-007 1.4057e-006 -8.69132e-007 
